<svg xmlns="http://www.w3.org/2000/svg" height="512pt" version="1.1" viewBox="-60 0 512 512.00034" width="512pt">
<g id="surface1">
<path d="M 228.863281 388.234375 L 18.292969 509.804688 C 8.191406 515.636719 0 509.445312 0 495.976562 L 0 158.722656 C 0 145.25 8.191406 129.601562 18.292969 123.765625 L 228.863281 2.195312 C 238.964844 -3.636719 247.15625 2.554688 247.15625 16.023438 L 247.15625 353.277344 C 247.15625 366.75 238.964844 382.398438 228.863281 388.234375 Z M 228.863281 388.234375 " style=" stroke:none;fill-rule:nonzero;fill:rgb(89.019608%,89.019608%,89.019608%);fill-opacity:1;" />
<path d="M 112.882812 122.050781 L 30.5 169.613281 C 28.75 170.625 27.332031 169.550781 27.332031 167.21875 C 27.332031 164.886719 28.75 162.175781 30.5 161.164062 L 112.882812 113.601562 C 114.632812 112.589844 116.054688 113.664062 116.054688 115.996094 C 116.054688 118.328125 114.632812 121.039062 112.882812 122.050781 Z M 112.882812 122.050781 " style=" stroke:none;fill-rule:nonzero;fill:rgb(50.196078%,50.196078%,50.196078%);fill-opacity:1;" />
<path d="M 216.65625 119.875 L 30.5 227.355469 C 28.75 228.363281 27.328125 227.292969 27.328125 224.960938 C 27.328125 222.625 28.75 219.914062 30.5 218.90625 L 216.65625 111.425781 C 218.40625 110.417969 219.824219 111.488281 219.824219 113.820312 C 219.824219 116.152344 218.40625 118.863281 216.65625 119.875 Z M 216.65625 119.875 " style=" stroke:none;fill-rule:nonzero;fill:rgb(50.196078%,50.196078%,50.196078%);fill-opacity:1;" />
<path d="M 216.65625 177.613281 L 30.5 285.09375 C 28.75 286.105469 27.328125 285.03125 27.328125 282.699219 C 27.328125 280.363281 28.75 277.652344 30.5 276.644531 L 216.65625 169.164062 C 218.40625 168.15625 219.824219 169.226562 219.824219 171.5625 C 219.824219 173.894531 218.40625 176.605469 216.65625 177.613281 Z M 216.65625 177.613281 " style=" stroke:none;fill-rule:nonzero;fill:rgb(50.196078%,50.196078%,50.196078%);fill-opacity:1;" />
<path d="M 216.65625 235.355469 L 30.5 342.835938 C 28.75 343.84375 27.328125 342.773438 27.328125 340.441406 C 27.328125 338.105469 28.75 335.394531 30.5 334.386719 L 216.65625 226.90625 C 218.40625 225.898438 219.824219 226.96875 219.824219 229.300781 C 219.824219 231.632812 218.40625 234.34375 216.65625 235.355469 Z M 216.65625 235.355469 " style=" stroke:none;fill-rule:nonzero;fill:rgb(50.196078%,50.196078%,50.196078%);fill-opacity:1;" />
<path d="M 216.65625 293.097656 L 30.5 400.574219 C 28.75 401.585938 27.328125 400.511719 27.328125 398.179688 C 27.328125 395.847656 28.75 393.136719 30.5 392.125 L 216.65625 284.648438 C 218.40625 283.636719 219.824219 284.710938 219.824219 287.042969 C 219.824219 289.375 218.40625 292.085938 216.65625 293.097656 Z M 216.65625 293.097656 " style=" stroke:none;fill-rule:nonzero;fill:rgb(50.196078%,50.196078%,50.196078%);fill-opacity:1;" />
<path d="M 128.328125 414.3125 C 127.703125 414.3125 127.070312 414.152344 126.496094 413.816406 C 124.746094 412.800781 124.152344 410.5625 125.167969 408.816406 C 125.269531 408.640625 135.425781 391.15625 146.011719 374.03125 C 152.246094 363.945312 157.417969 355.941406 161.375 350.246094 C 168.859375 339.480469 171.242188 337.816406 174.1875 338.523438 C 175.648438 338.875 177.261719 340.152344 177.402344 342.683594 C 177.589844 346.101562 175.945312 353.175781 173.1875 363.402344 C 173.601562 362.417969 174.011719 361.4375 174.414062 360.476562 C 181.71875 343.003906 183.8125 338.449219 188.265625 338.898438 C 189.851562 339.058594 191.898438 340.058594 192.652344 343.898438 C 193.105469 346.207031 193.1875 348.871094 193.0625 351.628906 C 198.082031 341.8125 200.632812 338.511719 204.203125 338.855469 C 205.148438 338.945312 207.445312 339.507812 208.316406 342.738281 C 208.75 344.347656 208.878906 346.101562 208.835938 347.859375 C 211.847656 343.78125 215.46875 338.722656 218.808594 333.941406 C 219.964844 332.28125 222.246094 331.878906 223.902344 333.03125 C 225.558594 334.1875 225.964844 336.46875 224.808594 338.128906 C 221.398438 343.015625 210.042969 359.152344 207.125 361.578125 C 204.847656 363.472656 202.808594 362.542969 202.238281 362.214844 C 199.605469 360.691406 200.09375 357.847656 200.710938 354.25 C 200.824219 353.601562 200.949219 352.878906 201.066406 352.113281 C 199.316406 355.382812 197.421875 359.246094 196.015625 362.113281 C 194.6875 364.824219 193.433594 367.386719 192.304688 369.539062 C 191.175781 371.691406 189.472656 374.945312 186.140625 373.839844 C 183.050781 372.8125 183.421875 369.441406 183.5625 368.171875 C 183.691406 367.007812 183.9375 365.464844 184.226562 363.675781 C 184.730469 360.570312 185.378906 356.550781 185.660156 352.78125 C 184.210938 356.015625 182.605469 359.855469 181.164062 363.296875 C 177.417969 372.257812 173.167969 382.417969 168.519531 391.042969 C 166.496094 394.800781 164.398438 398.683594 160.734375 397.207031 C 157.113281 395.75 158.085938 391.722656 159.4375 386.15625 C 160.414062 382.128906 161.894531 376.800781 163.464844 371.15625 C 165.042969 365.488281 166.9375 358.675781 168.296875 353.089844 C 159.757812 365.253906 144.769531 389.621094 131.496094 412.484375 C 130.816406 413.65625 129.589844 414.3125 128.328125 414.3125 Z M 128.328125 414.3125 " style=" stroke:none;fill-rule:nonzero;fill:rgb(50.196078%,50.196078%,50.196078%);fill-opacity:1;" />
<path d="M 272.574219 295.761719 L 272.988281 295.070312 L 261.433594 285.929688 L 249.878906 276.792969 L 249.300781 277.355469 C 242.855469 283.648438 233.847656 286.570312 224.9375 285.265625 L 221.808594 336.035156 L 270.488281 321.292969 C 267.167969 312.925781 267.9375 303.484375 272.574219 295.761719 Z M 272.574219 295.761719 " style=" stroke:none;fill-rule:nonzero;fill:rgb(53.333333%,53.333333%,53.333333%);fill-opacity:1;" />
<path d="M 285.597656 255.382812 L 263.355469 237.789062 L 246.847656 274.394531 C 248.53125 288.824219 261.59375 299.15625 276.023438 297.46875 L 307.839844 272.972656 Z M 285.597656 255.382812 " style=" stroke:none;fill-rule:nonzero;fill:rgb(25.882353%,25.882353%,25.882353%);fill-opacity:1;" />
<path d="M 383.152344 170.683594 C 387.207031 161.523438 390.121094 151.898438 391.832031 142.03125 C 393.835938 130.464844 382.222656 121.28125 371.429688 125.894531 C 362.21875 129.832031 353.527344 134.886719 345.546875 140.941406 C 325.292969 156.308594 307.0625 174.179688 291.289062 194.121094 L 270.214844 220.765625 C 265.90625 226.210938 274.191406 239.945312 288.71875 251.433594 C 303.246094 262.925781 318.519531 267.824219 322.828125 262.378906 L 343.902344 235.730469 C 359.675781 215.789062 372.863281 193.933594 383.152344 170.683594 Z M 383.152344 170.683594 " style=" stroke:none;fill-rule:nonzero;fill:rgb(5.098039%,40.784314%,74.509804%);fill-opacity:1;" />
<path d="M 288.71875 251.433594 C 274.191406 239.945312 265.90625 226.210938 270.214844 220.765625 L 256.171875 238.519531 C 251.863281 243.96875 260.144531 257.699219 274.675781 269.191406 C 289.203125 280.683594 304.472656 285.582031 308.78125 280.132812 L 322.828125 262.375 C 318.519531 267.824219 303.246094 262.925781 288.71875 251.433594 Z M 288.71875 251.433594 " style=" stroke:none;fill-rule:nonzero;fill:rgb(53.333333%,53.333333%,53.333333%);fill-opacity:1;" />
<path d="M 245.878906 305.601562 C 242.90625 303.25 238.589844 303.753906 236.238281 306.726562 C 234.28125 309.199219 234.3125 312.601562 236.089844 315.027344 L 222.003906 332.835938 L 221.808594 336.03125 L 224.875 335.105469 L 238.957031 317.296875 C 241.730469 318.46875 245.046875 317.710938 247.003906 315.238281 C 249.351562 312.265625 248.847656 307.953125 245.878906 305.601562 Z M 245.878906 305.601562 " style=" stroke:none;fill-rule:nonzero;fill:rgb(25.882353%,25.882353%,25.882353%);fill-opacity:1;" />
</g>
</svg>